PathFileType	4	(X/Y/Z)	D:\luciana\glass.trc
DataRate	CameraRate	NumFrames	NumMarkers	Units	OrigDataRate	OrigDataStartFrame	OrigNumFrames
250.00	250.00	18	19	mm	250.00	1508	2010
Frame#	Time	pelvisR			PelvisL			Trunk1			Trunk2			Trunk3			C7			shoulder			upperArm1			upperArm2			upperArm3			elbow			forearm1			forearm2			forearm3			wrist1			wrist2			wrist3			Object			Hand			
		X1	Y1	Z1	X2	Y2	Z2	X3	Y3	Z3	X4	Y4	Z4	X5	Y5	Z5	X6	Y6	Z6	X7	Y7	Z7	X8	Y8	Z8	X9	Y9	Z9	X10	Y10	Z10	X11	Y11	Z11	X12	Y12	Z12	X13	Y13	Z13	X14	Y14	Z14	X15	Y15	Z15	X16	Y16	Z16	X17	Y17	Z17	X18	Y18	Z18	X19	Y19	Z19	

1507	6.028000	1734.503388	645.982385	681.116700	1399.026752	648.867190	667.525411	1605.963469	845.531881	940.935791	1636.522651	755.827606	923.281491	1545.305729	790.115356	920.424342	1557.358861	1127.876282	835.942447	1737.527609	1056.059837	787.008464	1861.958504	900.470197	727.693439	1818.371296	863.916159	779.561043	1805.687904	925.279438	673.256516	1852.302790	785.355449	653.676867	1900.365829	758.089840	584.271014	1850.984335	811.727047	566.601872	1851.779699	698.287725	616.231680	1869.853497	775.715351	437.402785	1873.270869	696.417332	452.704370	1799.317598	794.804990	448.249936	1569.589496	768.345952	246.588990	1848.077774	730.761588	346.922517	
1508	6.032000	1734.503269	645.974576	681.134105	1399.016976	648.841500	667.537272	1605.911493	845.532238	940.928340	1636.463404	755.825877	923.290968	1545.398831	790.124059	920.488358	1557.382584	1127.887487	835.884690	1737.575412	1056.018829	787.017167	1861.864686	900.157094	728.599072	1818.324089	863.828421	780.046105	1805.982947	925.031424	673.533916	1852.551937	785.041332	654.419661	1900.802374	757.551551	585.222065	1851.413250	811.187685	567.279339	1852.026105	697.868347	617.237389	1870.664358	774.747193	438.224554	1873.999596	695.526600	453.776896	1800.142288	793.915272	448.889136	1569.594502	768.341780	246.579379	1849.178791	729.561985	347.842485	
1509	6.036000	1734.496236	645.962894	681.128502	1398.977399	648.829818	667.497277	1605.931997	845.580637	940.934479	1636.964083	756.364465	923.595190	1545.936108	790.454507	920.956016	1557.392120	1127.899647	835.831225	1737.614632	1055.973768	787.054777	1862.337470	899.836004	729.644537	1818.282485	863.758683	780.541897	1806.225300	924.762011	673.856616	1852.781653	784.722805	655.190706	1901.204824	756.994426	586.142659	1851.826191	810.656965	567.957878	1852.294326	697.437584	618.207932	1871.483684	773.775816	439.047456	1874.693394	694.609761	454.827070	1800.930738	793.023586	449.510336	1569.626570	768.346071	246.594518	1850.268364	728.349328	348.780751	
1510	6.040000	1734.483242	645.960689	681.122303	1398.900151	648.848653	667.476356	1605.987310	845.654964	940.945685	1637.596011	757.035136	923.966229	1546.572924	790.865839	921.525598	1557.382464	1127.892971	835.781693	1737.669230	1055.942059	787.084341	1862.943530	899.520993	730.717719	1818.270206	863.695979	781.036735	1806.440353	924.502373	674.174130	1852.989197	784.384370	655.929089	1901.629448	756.452441	587.100983	1852.224350	810.121298	568.627357	1852.529764	696.993828	619.168460	1872.260809	772.813618	439.885974	1875.405908	693.727195	455.879480	1801.678896	792.129219	450.108290	1569.664001	768.345237	246.617287	1851.330042	727.146327	349.715292	
1511	6.044000	1734.481812	645.962477	681.130469	1399.017572	648.784518	667.491555	1605.844259	845.576406	940.888166	1636.650920	756.132007	923.496008	1545.973420	790.333033	920.927525	1557.407141	1127.899885	835.733175	1737.705946	1055.895925	787.136674	1862.294674	899.502575	730.464697	1818.253636	863.649189	781.499922	1806.645751	924.231291	674.490213	1853.185415	784.046054	656.643093	1902.051449	755.936325	588.059008	1852.623463	809.565723	569.297373	1852.771878	696.556091	620.132625	1873.009801	771.838248	440.706193	1876.113772	692.819357	456.919789	1802.428007	791.222572	450.698107	1569.635272	768.311262	246.592537	1852.359772	725.927949	350.639880	
1512	6.048000	1734.477520	645.964026	681.134880	1399.099350	648.734868	667.509079	1605.793595	845.578611	940.864801	1636.388898	755.912542	923.390031	1545.912743	790.199161	920.839548	1557.444572	1127.907515	835.684299	1737.774611	1055.847645	787.169456	1862.195969	899.366558	730.730236	1818.222880	863.596916	781.934917	1806.851387	923.967719	674.815714	1853.419065	783.716738	657.376170	1902.459383	755.416214	588.983297	1853.034616	809.013367	569.966435	1853.002191	696.114719	621.077657	1873.788595	770.872295	441.516608	1876.767039	691.883683	457.973152	1803.172588	790.322602	451.286525	1569.641590	768.298328	246.584713	1853.386521	724.722564	351.572722	
1513	6.052000	1734.475732	645.966232	681.152463	1399.067879	648.768485	667.528093	1605.785608	845.588267	940.862477	1636.290312	755.860269	923.369646	1545.982361	790.175021	920.874000	1557.465076	1127.917171	835.640550	1737.827778	1055.803537	787.197113	1862.240195	899.206102	731.127977	1818.218827	863.539875	782.375097	1807.076693	923.715532	675.139964	1853.643894	783.386230	658.101916	1902.863026	754.906833	589.912415	1853.429556	808.480501	570.622146	1853.224635	695.670247	621.999800	1874.535680	769.910634	442.327529	1877.455831	690.972447	459.035009	1803.914905	789.429724	451.900929	1569.649100	768.288374	246.585339	1854.383469	723.486900	352.508962	
1514	6.056000	1734.485149	645.961463	681.161702	1399.055004	648.775578	667.515159	1605.750918	845.597506	940.869212	1636.240721	755.849361	923.378587	1546.080589	790.169597	920.930862	1557.478786	1127.928257	835.593045	1737.869740	1055.742979	787.194014	1862.335443	899.046302	731.565237	1818.219781	863.480806	782.817721	1807.305694	923.473179	675.457835	1853.862405	783.050537	658.797443	1903.264523	754.389882	590.851724	1853.821278	807.946324	571.269274	1853.455067	695.243716	622.893333	1875.268698	768.917918	443.154514	1878.110528	690.017581	460.107327	1804.643273	788.511515	452.520788	1569.659352	768.277824	246.581957	1855.364323	722.260594	353.418916	
1515	6.060000	1734.493494	645.958781	681.166172	1399.029970	648.793340	667.519569	1605.706453	845.586300	940.837145	1636.207938	755.856693	923.377931	1546.183467	790.189564	920.982718	1557.494521	1127.946377	835.546970	1737.903714	1055.691957	787.219048	1862.434387	898.878634	732.002974	1818.210840	863.423705	783.266068	1807.522893	923.212945	675.766468	1854.074478	782.740176	659.499347	1903.660178	753.858566	591.754973	1854.225278	807.394445	571.912646	1853.686094	694.820344	623.775721	1875.990152	767.941654	443.938166	1878.718138	689.099073	461.140335	1805.365920	787.606895	453.127384	1569.664121	768.266678	246.574029	1856.322765	721.050918	354.330957	
1516	6.064000	1734.483957	645.945191	681.159496	1399.021983	648.800790	667.530417	1605.685472	845.602393	940.811515	1636.170149	755.862832	923.386574	1546.284914	790.205181	921.042979	1557.527304	1127.953291	835.484147	1737.933159	1055.652857	787.235737	1862.539172	898.710966	732.436359	1818.204403	863.375366	783.711433	1807.740211	922.955394	676.052570	1854.266763	782.442033	660.225570	1904.031992	753.293991	592.642784	1854.633570	806.848526	572.549582	1853.844643	694.388390	624.638677	1876.693368	766.966581	444.714278	1879.338503	688.204110	462.153167	1806.064487	786.729097	453.715682	1569.673300	768.262386	246.577650	1857.268810	719.839990	355.226338	
1517	6.068000	1734.482765	645.944059	681.176305	1399.061203	648.806989	667.533696	1605.666995	845.617950	940.827608	1636.128187	755.864859	923.389494	1546.396971	790.220857	921.117365	1557.539701	1127.966881	835.442483	1737.985849	1055.594325	787.255228	1862.636089	898.540199	732.856452	1818.204880	863.331318	784.167528	1807.958364	922.703207	676.324010	1854.480505	782.145381	660.947204	1904.420257	752.765834	593.547404	1855.041027	806.300759	573.170543	1853.978515	693.968892	625.479221	1877.420068	765.994906	445.486933	1879.978418	687.300682	463.137090	1806.756139	785.827160	454.310477	1569.700241	768.257201	246.589988	1858.182907	718.617499	356.127053	
1518	6.072000	1734.484911	645.943463	681.191504	1399.033666	648.826182	667.538762	1605.654955	845.613301	940.822780	1636.110067	755.869925	923.398435	1546.512127	790.248990	921.193004	1557.574034	1127.976656	835.403085	1738.042116	1055.543184	787.283182	1862.729430	898.362398	733.287156	1818.204522	863.293648	784.599304	1808.189392	922.442317	676.605105	1854.683995	781.850159	661.630154	1904.804111	752.262592	594.436467	1855.430245	805.752873	573.763371	1854.151368	693.561912	626.275182	1878.103375	765.037894	446.275234	1880.618095	686.418295	464.120984	1807.450414	784.913898	454.908311	1569.730282	768.253863	246.604711	1859.072328	717.387915	357.010305	
1519	6.076000	1734.486580	645.941198	681.198955	1398.976088	648.840249	667.527914	1605.650663	845.642030	940.813661	1636.098862	755.878747	923.408508	1546.638608	790.273547	921.271086	1557.612181	1127.990007	835.357428	1738.083601	1055.500031	787.288189	1862.818480	898.184180	733.746231	1818.201423	863.257766	785.001576	1808.417439	922.191858	676.892698	1854.878783	781.537294	662.294507	1905.161142	751.743495	595.330775	1855.802894	805.212557	574.351549	1854.315639	693.154931	627.048612	1878.770947	764.086306	447.029084	1881.258607	685.518146	465.139747	1808.132410	784.030259	455.511630	1569.748163	768.248558	246.602327	1859.950304	716.172576	357.895195	
1520	6.080000	1734.487414	645.924807	681.199670	1399.021864	648.856699	667.522371	1605.635405	845.661044	940.791249	1636.081338	755.889475	923.421144	1546.763659	790.292084	921.342492	1557.647943	1128.006101	835.312307	1738.140225	1055.432796	787.306666	1862.913966	898.013592	734.187365	1818.207383	863.211870	785.413146	1808.629036	921.933949	677.175283	1855.073571	781.203449	662.951767	1905.519724	751.202226	596.202552	1856.178284	804.668188	574.946165	1854.458094	692.746460	627.853155	1879.440546	763.123691	447.763294	1881.833076	684.617043	466.160417	1808.785558	783.114195	456.107408	1569.770575	768.242061	246.607840	1860.807657	714.941561	358.779341	
1521	6.084000	1734.490395	645.919621	681.196988	1399.061918	648.839712	667.523682	1605.642915	845.683813	940.795541	1636.074543	755.905449	923.414767	1546.872139	790.300608	921.408296	1557.659626	1128.010273	835.268140	1738.193750	1055.394888	787.310004	1863.020897	897.850215	734.615564	1818.204165	863.155544	785.801470	1808.824778	921.678245	677.453637	1855.261564	780.877471	663.603842	1905.893087	750.666320	597.083926	1856.548667	804.131389	575.565696	1854.610324	692.339063	628.640831	1880.071163	762.159705	448.518187	1882.373452	683.709085	467.195660	1809.420586	782.212496	456.665158	1569.778681	768.229961	246.614680	1861.649871	713.727772	359.655023	
1522	6.088000	1734.486818	645.909548	681.201577	1399.067521	648.851991	667.539060	1605.634928	845.698237	940.786123	1636.040211	755.909801	923.421443	1546.982288	790.305793	921.468258	1557.670832	1128.010631	835.222602	1738.247991	1055.351853	787.299871	1863.125205	897.680461	735.034764	1818.198323	863.101542	786.197901	1809.021235	921.432555	677.741289	1855.455995	780.579209	664.258003	1906.237841	750.155330	597.969592	1856.908798	803.602219	576.202035	1854.781866	691.927493	629.394412	1880.661964	761.209846	449.287534	1882.940054	682.798266	468.201309	1810.039043	781.335056	457.208246	1569.795370	768.223643	246.617198	1862.479925	712.501705	360.516042	
1523	6.092000	1734.477162	645.908356	681.212246	1399.056435	648.870587	667.531490	1605.621934	845.706820	940.767288	1636.028647	755.912304	923.435211	1547.076941	790.315986	921.517670	1557.691693	1128.019810	835.179567	1738.305092	1055.318594	787.301421	1863.221884	897.512853	735.438704	1818.211555	863.060474	786.608100	1809.210539	921.180844	678.027630	1855.624914	780.269921	664.902329	1906.547904	749.648094	598.799527	1857.243061	803.079605	576.812267	1854.986429	691.525936	630.164206	1881.255269	760.271668	450.025320	1883.513212	681.913733	469.157219	1810.645223	780.435085	457.756937	1569.806218	768.208563	246.622488	1863.262057	711.286604	361.366570	
1524	6.096000	1734.475374	645.917535	681.220770	1399.017334	648.858368	667.546153	1605.575085	845.714927	940.737903	1636.016846	755.928457	923.441112	1547.165513	790.324271	921.571493	1557.723045	1128.015518	835.140824	1738.357306	1055.277228	787.319839	1863.308668	897.356391	735.807240	1818.232059	863.032699	787.009299	1809.396386	920.922518	678.306580	1855.799079	779.968917	665.562749	1906.832576	749.143183	599.646568	1857.567906	802.552819	577.395916	1855.228424	691.163361	630.961776	1881.869435	759.358823	450.758636	1884.099960	681.068897	470.140398	1811.243653	779.502213	458.337218	1569.828272	768.202007	246.628538	1864.011049	710.064054	362.236172	
